<?xml version="1.0" encoding="UTF-8"?><svg xmlns="http://www.w3.org/2000/svg" xmlns:xlink="http://www.w3.org/1999/xlink" height="799.4" preserveAspectRatio="xMidYMid meet" version="1.0" viewBox="511.3 599.4 975.8 799.4" width="975.8" zoomAndPan="magnify"><g><g id="change1_1"><path d="M 1054.699219 783.730469 L 1054.699219 745.808594 C 1054.699219 706.269531 1038.289062 667.921875 1009.691406 640.609375 C 981.203125 613.429688 944.03125 599.449219 905.027344 601.289062 C 828.691406 604.851562 768.890625 667.558594 768.890625 744.03125 L 768.890625 801.460938 C 768.890625 801.460938 776.867188 889.5 724.167969 891.621094 C 768.058594 890.578125 803.441406 854.558594 803.441406 810.429688 L 803.441406 744.03125 C 803.441406 686.039062 848.773438 638.511719 906.644531 635.789062 C 936.136719 634.421875 964.242188 645.011719 985.835938 665.609375 C 1007.648438 686.421875 1020.148438 715.660156 1020.148438 745.808594 L 1020.148438 783.730469 C 1020.148438 784.390625 1020.160156 785.050781 1020.179688 785.679688 C 1022.320312 838.359375 1110.328125 830.398438 1110.328125 830.398438 L 1101.371094 830.398438 C 1075.628906 830.398438 1054.699219 809.46875 1054.699219 783.730469 M 713.507812 1142.890625 C 713.507812 1142.890625 795.398438 1135.488281 803.109375 1182.21875 C 803.328125 1184.640625 803.441406 1187.089844 803.441406 1189.570312 L 803.441406 1254.179688 C 803.441406 1284.351562 815.957031 1313.570312 837.769531 1334.390625 C 859.34375 1355 887.5 1365.578125 916.945312 1364.199219 C 974.828125 1361.5 1020.148438 1313.960938 1020.148438 1255.96875 L 1020.148438 1189.570312 C 1020.148438 1145.449219 1055.53125 1109.421875 1099.421875 1108.390625 C 1046.730469 1110.519531 1054.699219 1198.539062 1054.699219 1198.539062 L 1054.699219 1255.96875 C 1054.699219 1332.441406 994.898438 1395.148438 918.5625 1398.710938 C 916.300781 1398.808594 914.039062 1398.871094 911.796875 1398.871094 C 875.285156 1398.871094 840.75 1384.988281 813.914062 1359.378906 C 785.300781 1332.078125 768.890625 1293.738281 768.890625 1254.179688 L 768.890625 1189.570312 C 768.890625 1163.839844 747.960938 1142.898438 722.222656 1142.898438 L 713.507812 1142.898438 L 713.507812 1142.890625" fill="#068276"/></g><g id="change2_1"><path d="M 1303.769531 1128.75 C 1303.769531 1149.191406 1287.199219 1165.769531 1266.75 1165.769531 C 1246.308594 1165.769531 1229.738281 1149.191406 1229.738281 1128.75 C 1229.738281 1108.308594 1246.308594 1091.730469 1266.75 1091.730469 C 1287.199219 1091.730469 1303.769531 1108.308594 1303.769531 1128.75 M 722.222656 1108.359375 C 764.527344 1108.359375 799.390625 1140.859375 803.109375 1182.21875 C 795.398438 1135.488281 713.507812 1142.890625 713.507812 1142.890625 L 713.507812 1142.898438 L 657.617188 1142.898438 C 618.058594 1142.898438 579.710938 1126.488281 552.417969 1097.878906 C 525.234375 1069.398438 511.261719 1032.238281 513.082031 993.230469 C 516.648438 916.898438 579.351562 857.101562 655.824219 857.101562 L 722.222656 857.101562 C 747.960938 857.101562 768.890625 836.171875 768.890625 810.429688 L 768.890625 801.460938 C 768.890625 801.460938 776.867188 889.5 724.167969 891.621094 C 723.539062 891.628906 722.882812 891.648438 722.222656 891.648438 L 655.824219 891.648438 C 597.835938 891.648438 550.300781 936.96875 547.597656 994.851562 C 546.214844 1024.328125 556.800781 1052.449219 577.402344 1074.03125 C 598.226562 1095.839844 627.449219 1108.359375 657.617188 1108.359375 L 722.222656 1108.359375 M 1487.078125 902.699219 L 1487.078125 911.398438 C 1487.078125 920.371094 1480.261719 927.730469 1471.550781 928.628906 C 1464.761719 949.941406 1451.320312 968.851562 1432.960938 982.179688 C 1414.789062 995.398438 1392.898438 1002.390625 1370.75 1002.390625 C 1363.871094 1002.390625 1356.941406 1001.710938 1350.089844 1000.351562 C 1325.488281 995.398438 1303.171875 989.308594 1283.171875 982.128906 C 1279.921875 985.398438 1275.46875 987.269531 1270.871094 987.269531 C 1268.660156 987.269531 1266.410156 986.839844 1264.230469 985.929688 C 1241.21875 976.351562 1221.46875 965.058594 1205.480469 952.390625 C 1205.28125 952.230469 1205.089844 952.070312 1204.898438 951.898438 C 1177.96875 928.53125 1161.238281 898.160156 1156.671875 864.949219 L 1101.371094 864.949219 C 1057.238281 864.949219 1021.21875 829.570312 1020.179688 785.679688 C 1022.320312 838.359375 1110.328125 830.398438 1110.328125 830.398438 L 1156.300781 830.398438 C 1160.25 796.011719 1177.148438 764.511719 1204.898438 740.441406 C 1205.089844 740.269531 1205.28125 740.109375 1205.480469 739.949219 C 1221.46875 727.28125 1241.21875 715.988281 1264.230469 706.410156 C 1270.921875 703.628906 1278.359375 705.371094 1283.148438 710.21875 C 1303.171875 703.050781 1325.488281 696.941406 1350.089844 691.988281 C 1378.941406 686.210938 1409.140625 692.828125 1432.960938 710.160156 C 1452 724 1465.75 743.800781 1472.269531 766.078125 C 1480.640625 767.289062 1487.078125 774.480469 1487.078125 783.179688 L 1487.078125 791.898438 C 1487.078125 801.460938 1479.328125 809.199219 1469.769531 809.199219 C 1460.210938 809.199219 1452.46875 801.460938 1452.46875 791.898438 L 1452.46875 783.179688 C 1452.46875 777.25 1455.449219 772.03125 1460 768.910156 C 1454.179688 749.550781 1442.148438 732.371094 1425.578125 720.320312 C 1404.589844 705.039062 1377.96875 699.199219 1352.578125 704.320312 C 1328.828125 709.089844 1307.351562 714.941406 1288.109375 721.78125 C 1288.351562 728.761719 1284.328125 735.460938 1277.511719 738.300781 C 1257.601562 746.589844 1240.691406 756.171875 1227.25 766.769531 C 1203.191406 787.800781 1189.929688 815.988281 1189.929688 846.171875 C 1189.929688 876.371094 1203.191406 904.539062 1227.25 925.570312 C 1240.691406 936.171875 1257.601562 945.75 1277.511719 954.039062 C 1284.339844 956.878906 1288.359375 963.601562 1288.128906 970.570312 C 1307.351562 977.421875 1328.828125 983.261719 1352.578125 988.019531 C 1377.96875 993.140625 1404.589844 987.300781 1425.578125 972.019531 C 1441.621094 960.351562 1453.410156 943.878906 1459.441406 925.269531 C 1455.210938 922.109375 1452.46875 917.089844 1452.46875 911.398438 L 1452.46875 902.699219 C 1452.46875 893.140625 1460.210938 885.378906 1469.769531 885.378906 C 1479.328125 885.378906 1487.078125 893.140625 1487.078125 902.699219 M 1266.789062 1178.828125 C 1238.710938 1178.828125 1215.871094 1155.988281 1215.871094 1127.910156 C 1215.871094 1099.828125 1238.710938 1076.988281 1266.789062 1076.988281 C 1294.871094 1076.988281 1317.710938 1099.828125 1317.710938 1127.910156 C 1317.710938 1155.988281 1294.871094 1178.828125 1266.789062 1178.828125 M 1266.789062 1053.039062 C 1232.269531 1053.039062 1203.160156 1076.519531 1194.53125 1108.351562 L 1101.359375 1108.351562 C 1100.699219 1108.351562 1100.050781 1108.378906 1099.410156 1108.378906 C 1046.71875 1110.519531 1054.691406 1198.539062 1054.691406 1198.539062 L 1054.691406 1189.578125 C 1054.691406 1163.839844 1075.621094 1142.910156 1101.359375 1142.910156 L 1193.429688 1142.910156 C 1200.398438 1177.019531 1230.640625 1202.769531 1266.789062 1202.769531 C 1308.070312 1202.769531 1341.648438 1169.191406 1341.648438 1127.910156 C 1341.648438 1086.628906 1308.070312 1053.039062 1266.789062 1053.039062" fill="#00a79d"/></g><g id="change3_1"><path d="M 1054.710938 1188.191406 C 1054.839844 1183.738281 1055.601562 1179.429688 1056.898438 1175.371094 C 1056.871094 1175.488281 1056.839844 1175.621094 1056.808594 1175.738281 L 1056.789062 1175.769531 C 1055.621094 1179.589844 1054.910156 1183.609375 1054.75 1187.769531 C 1054.738281 1187.910156 1054.71875 1188.050781 1054.710938 1188.191406 M 737.121094 1145.339844 C 736.667969 1145.230469 736.214844 1145.121094 735.757812 1145.011719 L 735.726562 1144.988281 C 731.910156 1143.808594 727.890625 1143.109375 723.730469 1142.949219 C 723.628906 1142.941406 723.523438 1142.929688 723.421875 1142.921875 C 728.199219 1143.039062 732.804688 1143.878906 737.121094 1145.339844 M 718.960938 1142.578125 C 720.332031 1142.53125 721.929688 1142.488281 723.714844 1142.46875 C 723.71875 1142.46875 723.71875 1142.46875 723.71875 1142.46875 C 721.933594 1142.488281 720.332031 1142.53125 718.960938 1142.578125 M 1100.28125 830.390625 C 1095.609375 830.28125 1091.101562 829.488281 1086.859375 828.101562 C 1087.089844 828.148438 1087.320312 828.210938 1087.539062 828.261719 L 1087.578125 828.28125 C 1091.390625 829.460938 1095.410156 830.160156 1099.570312 830.320312 C 1099.808594 830.339844 1100.039062 830.371094 1100.28125 830.390625" fill="#ccc"/></g><g id="change4_1"><path d="M 803.109375 1204.601562 C 792.296875 1175.46875 767.632812 1153.039062 737.121094 1145.339844 C 732.804688 1143.878906 728.199219 1143.039062 723.421875 1142.921875 C 721.945312 1142.769531 720.453125 1142.648438 718.960938 1142.578125 C 720.332031 1142.53125 721.933594 1142.488281 723.71875 1142.46875 C 724.195312 1142.46875 724.6875 1142.460938 725.191406 1142.460938 C 748.234375 1142.460938 796.925781 1146.71875 802.78125 1182.21875 C 803 1184.640625 803.109375 1187.089844 803.109375 1189.570312 L 803.109375 1204.601562 M 1054.410156 1178.890625 C 1055.398438 1154.160156 1061.988281 1114 1094.03125 1108.71875 C 1095.328125 1108.601562 1096.640625 1108.511719 1097.96875 1108.460938 C 1062.609375 1111.011719 1055.460938 1153.171875 1054.410156 1178.890625 M 725.085938 891.570312 C 764.691406 889.191406 769.320312 837.558594 769.324219 813.539062 C 769.324219 811.710938 769.296875 810.03125 769.253906 808.558594 C 769.28125 808.148438 769.300781 807.75 769.320312 807.351562 C 769.980469 826.019531 768.914062 884.820312 729.671875 891.289062 C 728.15625 891.421875 726.628906 891.519531 725.085938 891.570312 M 1098.109375 830.808594 C 1091.738281 830.808594 1083.421875 830.480469 1074.589844 829.261719 C 1050.359375 825.890625 1022.359375 815.761719 1020.269531 787.179688 C 1020.21875 786.03125 1020.191406 784.859375 1020.191406 783.691406 L 1020.191406 768.671875 C 1031.089844 798.019531 1056.039062 820.558594 1086.859375 828.101562 C 1091.101562 829.488281 1095.609375 830.28125 1100.28125 830.390625 C 1101.671875 830.53125 1103.058594 830.628906 1104.460938 830.691406 C 1102.679688 830.761719 1100.539062 830.808594 1098.109375 830.808594" fill="#05685e"/></g><g id="change5_1"><path d="M 1054.378906 1192.648438 C 1054.261719 1189.230469 1054.191406 1184.449219 1054.410156 1178.890625 C 1055.460938 1153.171875 1062.609375 1111.011719 1097.96875 1108.460938 C 1099.101562 1108.410156 1100.230469 1108.390625 1101.378906 1108.390625 L 1116.410156 1108.390625 C 1086.949219 1119.320312 1064.351562 1144.398438 1056.898438 1175.371094 C 1055.601562 1179.429688 1054.839844 1183.738281 1054.710938 1188.191406 C 1054.558594 1189.671875 1054.449219 1191.160156 1054.378906 1192.648438 M 718.960938 1142.578125 C 718.921875 1142.578125 718.882812 1142.578125 718.84375 1142.570312 C 720.253906 1142.519531 721.890625 1142.480469 723.714844 1142.46875 C 721.929688 1142.488281 720.332031 1142.53125 718.960938 1142.578125 M 722.320312 891.621094 L 707.292969 891.621094 C 736.859375 880.640625 759.523438 855.398438 766.886719 824.261719 L 766.902344 824.230469 C 768.078125 820.421875 768.785156 816.398438 768.945312 812.230469 C 769.074219 811.011719 769.179688 809.789062 769.253906 808.558594 C 769.296875 810.03125 769.324219 811.710938 769.324219 813.539062 C 769.320312 837.558594 764.691406 889.191406 725.085938 891.570312 C 724.167969 891.601562 723.246094 891.621094 722.320312 891.621094 M 1074.589844 829.261719 C 1051.441406 826.070312 1024.761719 816.738281 1020.519531 791.039062 C 1020.410156 789.769531 1020.320312 788.480469 1020.269531 787.179688 C 1022.359375 815.761719 1050.359375 825.890625 1074.589844 829.261719" fill="#00867e"/></g></g></svg>